<?xml version="1.0" encoding="utf-8"?>
<!-- Generator: Adobe Illustrator 19.0.0, SVG Export Plug-In . SVG Version: 6.00 Build 0)  -->
<svg version="1.1" id="Layer_1" xmlns="http://www.w3.org/2000/svg" xmlns:xlink="http://www.w3.org/1999/xlink" x="0px" y="0px"
	 viewBox="-49 141 512 512" style="enable-background:new -49 141 512 512;" xml:space="preserve">
<style type="text/css">
	.st0{fill:#F7BA9C;}
	.st1{fill:#B74941;}
	.st2{fill:#DB6D53;}
	.st3{fill:#323030;}
	.st4{fill:#403E3E;}
	.st5{fill:#612324;}
	.st6{fill:#92393C;}
	.st7{fill:#5C4D38;}
</style>
<path class="st0" d="M411.5,434.7L411.5,434.7c0,38.4-31.1,69.6-69.6,69.6h-3.3l-56.8,101.4c-6.4,11.4-17.4,18.3-29.3,18.3h-49.8
	H153c-11.9,0-22.9-6.9-29.3-18.3L66.9,504.2h-3.3c-38.4,0-69.6-31.1-69.6-69.6l0,0c0-38.4,31.1-69.6,69.6-69.6h1.5
	C58.6,348,55,329.5,55,310.1l0,0c0-84.8,68.8-153.6,153.6-153.6l0,0c0.1,0,0.2,0,0.3,0c1,16.7,4.6,32.7,10.5,47.5
	c15.7,31.6,41.1,56.8,73.8,70.6h22.4c32,0,58,26,58,58l0,0c0,13.3-4.5,25.6-12.1,35.4C390.3,376.4,411.5,403.1,411.5,434.7z"/>
<path class="st1" d="M411.5,434.7L411.5,434.7c0,38.4-31.1,69.6-69.6,69.6h-3.3l-56.8,101.4c-6.4,11.4-17.4,18.3-29.3,18.3h-49.8
	H153c-11.9,0-22.9-6.9-29.3-18.3L66.9,504.2h-3.3c-38.4,0-69.6-31.1-69.6-69.6l0,0c0-38.4,31.1-69.6,69.6-69.6h0.9
	c33.5,55.6,94.4,92.3,164,92.7c112.9,0.8,145.2-86,133.4-89.8C390.6,376.7,411.5,403.3,411.5,434.7z"/>
<path class="st0" d="M71.3,474.1c-1.9,4.4-6.2,7-10.6,7c-1.5,0-3.1-0.3-4.6-1C38,472.2,24,456.9,17.9,438c-2-6.1,1.3-12.6,7.4-14.6
	c6.1-2,12.6,1.3,14.6,7.4c4.1,12.6,13.4,22.8,25.4,28C71.2,461.4,73.9,468.2,71.3,474.1z"/>
<path class="st2" d="M373.9,332.6L373.9,332.6c0,13.3-0.6,61.7-99.4,61.7c-77.3,0-138.9-50.3-138.9-107.3
	c0-41.3,32.6-76.8,80.2-93.3c1.1,3.5,2.7,6.8,4,10.2c10.4,21,25.1,39.2,43.4,53c15.2,11.5,33.8,17.6,52.8,17.6l0,0
	C347.9,274.6,373.9,300.6,373.9,332.6z"/>
<path class="st3" d="M191.2,624H153c-11.9,0-22.9-6.9-29.3-18.3L66.9,504.2h271.7l-56.8,101.4c-6.4,11.4-17.4,18.3-29.3,18.3h-38.2
	L191.2,624z"/>
<path class="st4" d="M202.8,579c-45,0-82.5-32.2-90.7-74.8h181.5C285.3,546.8,247.8,579,202.8,579z"/>
<path class="st5" d="M245.9,209.1c29.7-14.7,65.8-2.5,80.5,27.2c14.7,29.7,2.5,65.8-27.2,80.5c-29.7,14.7-65.8,2.5-80.5-27.2
	C204,259.8,216.2,223.8,245.9,209.1L245.9,209.1z"/>
<path class="st6" d="M264.9,217.3c15.4-7.6,34.1-1.3,41.7,14.1c7.6,15.4,1.3,34.1-14.1,41.7c-15.4,7.6-34.1,1.3-41.7-14.1
	C243.2,243.5,249.5,224.9,264.9,217.3L264.9,217.3z"/>
<path class="st7" d="M341.9,166.7c0,3.4-2.8,6.2-6.2,6.2c-1.4,0-2.8,0.5-3.9,1.5c-20.6,18.3-35.9,37.8-46.8,68.2
	c-0.9,2.5-3.3,4.1-5.8,4.1c-0.7,0-1.4-0.1-2.1-0.4c-3.2-1.1-4.9-4.7-3.7-7.9c11.6-32.3,28-57.6,50.2-77.3c3.3-3,7.6-4.6,12.1-4.6
	C339.1,156.5,341.9,163.3,341.9,166.7z"/>
</svg>
