<?xml version="1.0" encoding="utf-8"?>
<!-- Generator: Adobe Illustrator 19.0.0, SVG Export Plug-In . SVG Version: 6.00 Build 0)  -->
<svg version="1.1" id="Layer_1" xmlns="http://www.w3.org/2000/svg" xmlns:xlink="http://www.w3.org/1999/xlink" x="0px" y="0px"
	 viewBox="-47 138 517 517" style="enable-background:new -47 138 517 517;" xml:space="preserve">
<style type="text/css">
	.st8{fill:#6C7A88;}
	.st9{fill:#8B9BA9;}
</style>
<path class="st8" d="M237.5,236.9c0,15.1-11.6,27.3-26,27.3s-26-12.2-26-27.3c0-15.1,11.6-27.3,26-27.3S237.5,221.8,237.5,236.9z"/>
<path class="st9" d="M252.4,253.2h-82c-88.5,0-167.2,73.4-167.2,176.4h416.2C419.6,326.6,341.1,253.2,252.4,253.2z"/>
<path class="st8" d="M418.1,405.1c-11.3-90-84.2-151.8-165.6-151.8h-61.8c0,3.8,2.2,7.5,5.8,8.2c67.1,13.6,114.3,67.8,126.4,133.4
	c1.8,10.1-5.6,19.4-15.4,19.4H4c-0.4,5.1-0.6,10.3-0.6,15.5v33.6h416.2v-33.5C419.6,416,418.2,406.2,418.1,405.1z"/>
<path class="st9" d="M417,487.8H6c-13,0-23.4-11-23.4-24.5c0-13.6,10.5-24.5,23.4-24.5H417c13,0,23.4,11,23.4,24.5
	C440.5,476.8,429.9,487.8,417,487.8z"/>
<path class="st8" d="M417,487.8c13,0,23.4-11,23.4-24.5c0-0.1,0-0.2,0-0.3c-0.2-15.9-23.3-15.9-23.4,0c0,0.1,0,0.2,0,0.3H-17.5
	c0,13.6,10.5,24.5,23.4,24.5H417z"/>
<path class="st8" d="M385.8,547.8H37.1c-8.3,0-16.2-3.5-22.1-9.5l-32.5-34.1h457.8L408,538.2C402.1,544.4,394.1,547.8,385.8,547.8z"
	/>
<path class="st9" d="M454.7,520.5H-31.7c-8.5,0-15.3-7.2-15.3-16v-0.6c0-8.9,6.9-16,15.3-16h486.4c8.5,0,15.3,7.2,15.3,16v0.6
	C470.1,513.3,463.2,520.5,454.7,520.5z"/>
</svg>
