<?xml version="1.0" encoding="utf-8"?>
<!-- Generator: Adobe Illustrator 19.0.0, SVG Export Plug-In . SVG Version: 6.00 Build 0)  -->
<svg version="1.1" id="Layer_1" xmlns="http://www.w3.org/2000/svg" xmlns:xlink="http://www.w3.org/1999/xlink" x="0px" y="0px"
	 viewBox="-49 141 512 512" style="enable-background:new -49 141 512 512;" xml:space="preserve">
<style type="text/css">
	.st110{fill:#ADA58C;}
	.st11{fill:#AA8144;}
	.st12{fill:#323030;}
	.st13{fill:#403E3E;}
	.st14{fill:#504E4D;}
	.st15{fill:#E5DFD7;}
	.st16{fill:none;stroke:#000000;stroke-miterlimit:10;stroke-dasharray:11.4382,11.4382;}
</style>
<path class="st110" d="M407.3,641.9L407.3,641.9c0,6.1-5,11.1-11.1,11.1H17.8c-6.1,0-11.1-5-11.1-11.1l0,0c0-6.1,5-11.1,11.1-11.1
	h378.4C402.4,630.7,407.3,635.7,407.3,641.9z"/>
<path class="st11" d="M106.8,569.5v66.8c0,3.1-2.5,5.6-5.6,5.6H56.7c-3.1,0-5.6-2.5-5.6-5.6v-66.8c0-3.1,2.5-5.6,5.6-5.6h44.5
	C104.3,564,106.8,566.4,106.8,569.5z M357.3,564h-44.5c-3.1,0-5.6,2.5-5.6,5.6v66.8c0,3.1,2.5,5.6,5.6,5.6h44.5
	c3.1,0,5.6-2.5,5.6-5.6v-66.8C362.8,566.4,360.3,564,357.3,564z"/>
<path class="st12" d="M362.8,152.1v423H51.2v-423c0-6.1,5-11.1,11.1-11.1h289.4C357.8,141,362.8,146,362.8,152.1z"/>
<path class="st13" d="M362.8,441.5H162.5c-24.6,0-44.5-19.9-44.5-44.5l0,0c0-3.8,0.5-7.6,1.4-11.1H51.2v-89h72.8
	c-3.8-6.6-6-14.1-6-22.3l0,0c0-24.6,19.9-44.5,44.5-44.5h200.3v89h-72.8c3.8,6.6,6,14.1,6,22.3l0,0c0,3.8-0.5,7.6-1.4,11.1h68.2
	V441.5z"/>
<path class="st14" d="M362.8,519.4H162.5c-24.6,0-44.5-19.9-44.5-44.5l0,0c0-3.8,0.5-7.6,1.4-11.1H51.2v-89h72.8
	c-3.8-6.5-6-14.1-6-22.3l0,0c0-24.6,19.9-44.5,44.5-44.5h200.3v89h-72.8c3.8,6.5,6,14.1,6,22.3l0,0c0,3.8-0.5,7.6-1.4,11.1h68.2
	V519.4z"/>
<path class="st15" d="M301.4,357.6c0,6.1-11.9,11.1-26.7,11.1H139.3c-14.7,0-26.7-5-26.7-11.1s11.9-11.1,26.7-11.1h135.4
	C289.4,346.5,301.4,351.4,301.4,357.6z"/>
<path class="st15" d="M299.5,394c0,6.1-11.7,11.1-26.1,11.1H140.6c-14.4,0-26.1-5-26.1-11.1s11.7-11.1,26.1-11.1h132.8
	C287.8,382.9,299.5,387.8,299.5,394z"/>
<path class="st15" d="M256.5,430.4c0,6.1-9.6,11.1-21.3,11.1h-56.4c-11.8,0-21.3-5-21.3-11.1s9.6-11.1,21.3-11.1h56.4
	C247,419.3,256.5,424.2,256.5,430.4z"/>
<g>
	<path class="st15" d="M178.7,218.9h56.5c6.1,0,11.1,5,11.1,11.1s-5,11.1-11.1,11.1h-56.5c-6.1,0-11.1-5-11.1-11.1
		S172.6,218.9,178.7,218.9z"/>
	<path class="st16" d="M178.7,218.9h56.5c6.1,0,11.1,5,11.1,11.1s-5,11.1-11.1,11.1h-56.5c-6.1,0-11.1-5-11.1-11.1
		S172.6,218.9,178.7,218.9z"/>
</g>
<path class="st15" d="M280,284.8c0,6.1-9.2,11.1-20.6,11.1H154.6c-11.4,0-20.6-5-20.6-11.1s9.2-11.1,20.6-11.1h104.8
	C270.8,273.7,280,278.6,280,284.8z"/>
<path class="st15" d="M245.4,321.2c0,6.1-7.6,11.1-17,11.1h-44.9c-9.4,0-17-5-17-11.1s7.6-11.1,17-11.1h44.9
	C237.8,310.1,245.4,315,245.4,321.2z"/>
</svg>
