<?xml version="1.0" encoding="utf-8"?>
<!-- Generator: Adobe Illustrator 19.0.0, SVG Export Plug-In . SVG Version: 6.00 Build 0)  -->
<svg version="1.1" id="Layer_1" xmlns="http://www.w3.org/2000/svg" xmlns:xlink="http://www.w3.org/1999/xlink" x="0px" y="0px"
	 viewBox="-49 141 512 512" style="enable-background:new -49 141 512 512;" xml:space="preserve">
<style type="text/css">
	.st187{fill:#FCD09F;}
	.st18{fill:#FFE36C;}
	.st19{fill:#FCBA27;}
	.st20{fill:#30C456;}
	.st21{fill:#21AA3B;}
	.st22{fill:#E5E5E5;}
	.st23{fill:#999999;}
	.st24{fill:#B28550;}
	.st25{fill:#C4C4C4;}
	.st26{fill:#898989;}
	.st180{fill:#996739;}
</style>
<path class="st187" d="M457,178c8.5-9,7.8-23.1-1.4-31.4c-9.6-8.5-24.4-7.2-32.2,3L299.4,310.5l32.3,0.5L457,178z"/>
<path class="st18" d="M192.1,310.5H-15v-7.2c0-57.2,46.4-103.5,103.5-103.5c57.2,0,103.5,46.4,103.5,103.5V310.5z"/>
<path class="st19" d="M168.9,303.3c0,0.2,0,7,0,7.2h-15.4c0-0.2-0.1-7-0.1-7.2c0-35.8-29.1-64.9-64.9-64.9
	c-35.8,0-64.9,29.1-64.9,64.9c0,0.2,0,7-0.1,7.2H8.2c0-0.2,0-7,0-7.2c0-44.3,36-80.4,80.4-80.4C132.8,222.9,168.9,258.9,168.9,303.3
	z"/>
<path class="st19" d="M124.6,303.8v6.7h-15.5v-6.7c0-11.4-9.2-20.6-20.6-20.6s-20.6,9.2-20.6,20.6l-0.1,6.7H52.5v-6.7
	c0-19.9,16.2-36.1,36.1-36.1S124.6,283.9,124.6,303.8z"/>
<path class="st20" d="M260.1,272.9h-47.4c-11.4,0-20.6,9.2-20.6,20.6V311h88.6v-17.5C280.7,282.1,271.4,272.9,260.1,272.9z"/>
<path class="st21" d="M280.7,294.7V311h-30.9v-17.5c0-11.4-9.2-20.6-20.6-20.6h30.9c11.4,0,20.6,9.2,20.6,20.6V294.7z"/>
<path class="st22" d="M448.6,314.1v13.4c0,125.2-101.5,226.6-226.6,226.6h-44.3c-109.5,0-200.8-77.6-222-180.8
	c-1-5-1.9-10.1-2.6-15.3c-1.3-10-2-20.2-2-30.5v-13.4c0-5.7,4.6-10.3,10.3-10.3h477C444,303.8,448.6,308.4,448.6,314.1z"/>
<path class="st23" d="M448.6,314.1v20.6H-49v-20.6c0-5.7,4.6-10.3,10.3-10.3h477C444,303.8,448.6,308.4,448.6,314.1z"/>
<path class="st24" d="M363.1,585H36.5c-8.5,0-15.5-6.9-15.5-15.5v-10.3c0-2.8,2.3-5.2,5.2-5.2h347.2c2.8,0,5.1,2.3,5.1,5.2v10.3
	C378.5,578.1,371.6,585,363.1,585z"/>
<path class="st25" d="M41.7,365.6c0,4.3-3.5,7.7-7.7,7.7h-78.3c-1-5-1.9-10.1-2.6-15.3c0.5-0.1,1-0.2,1.6-0.2h79.3
	C38.2,357.9,41.7,361.3,41.7,365.6z"/>
<path class="st25" d="M448.5,334.7c-3.8,121.8-103.8,219.4-226.5,219.4H191c122.8,0,222.7-97.6,226.5-219.4H448.5z"/>
<path class="st26" d="M448.6,314.1v13.4c0,2.4,0,4.8-0.1,7.2h-30.8v-20.6c0-5.7-4.6-10.3-10.3-10.3h30.9
	C444,303.8,448.6,308.4,448.6,314.1z"/>
<path class="st180" d="M378.5,559.3v10.3c0,8.5-6.9,15.5-15.5,15.5h-30.9c8.5,0,15.5-6.9,15.5-15.5v-10.3c0-2.8-2.3-5.2-5.2-5.2h30.9
	C376.2,554.1,378.5,556.4,378.5,559.3z"/>
</svg>
