<?xml version="1.0" encoding="utf-8"?>
<!-- Generator: Adobe Illustrator 19.0.0, SVG Export Plug-In . SVG Version: 6.00 Build 0)  -->
<svg version="1.1" id="Layer_1" xmlns="http://www.w3.org/2000/svg" xmlns:xlink="http://www.w3.org/1999/xlink" x="0px" y="0px"
	 viewBox="-49 141 512 512" style="enable-background:new -49 141 512 512;" xml:space="preserve">
<style type="text/css">
	.st330{fill:#E5DFD7;}
	.st331{fill:#A39B8D;}
	.st332{fill:#939B48;}
	.st33{fill:#60682E;}
	.st34{fill:#5A482F;}
	.st35{fill:#7D684D;}
	.st36{fill:#DB6D53;}
	.st37{fill:#612324;}
</style>
<path class="st330" d="M-14,475.4c-10.4-17.9-16.4-38.8-16.4-61.1c0-65.4,51.4-118.6,114.7-118.6c2.4,0,4.7,0.1,7,0.2
	c42.5-65.5,80.8-95.1,120.2-93.1c27,1.4,53.6,17.8,81.2,50c24,28,49.6,69.1,78.2,125.4c41.5,0.8,75.1,36,75.1,79.2
	c0,6-0.7,12.1-2,17.9H-14z"/>
<path class="st331" d="M224.6,258.2h-2.7c-6.8,0-12.3-5.7-12.3-12.7c0-7,5.5-12.7,12.3-12.7h2.7c6.8,0,12.3,5.7,12.3,12.7
	C236.9,252.5,231.4,258.2,224.6,258.2z M185.9,276.5c0-7-5.5-12.7-12.3-12.7H171c-6.8,0-12.3,5.7-12.3,12.7s5.5,12.7,12.3,12.7h2.7
	C180.5,289.1,185.9,283.5,185.9,276.5z M252.1,317.7c0-7-5.5-12.7-12.3-12.7h-2.7c-6.8,0-12.3,5.7-12.3,12.7s5.5,12.7,12.3,12.7h2.7
	C246.6,330.4,252.1,324.7,252.1,317.7z"/>
<path class="st332" d="M134.3,482.4c19.5-18.8,30.6-45.3,30.6-72.9v-7.3c0-3.9,1.6-7.6,4.4-10.2c13.9-12.7,37.7-21.2,59.3-21.2
	c1.8,0,3.7,0.1,5.5,0.2c15.3-21.8,40-35.1,66.4-35.1c26.4,0,51.2,13.3,66.5,35.1c2.2-0.2,4.4-0.3,6.6-0.3c45.2,0,82,38,82,84.8
	c0,9.1-1.4,18.1-4.2,26.7L134.3,482.4L134.3,482.4z"/>
<path class="st33" d="M447.1,482.4H160.9c0.8-5,1.1-10.1,1.1-15.2v-7.3c0-3.9,1.6-7.6,4.4-10.2c13.9-12.7,37.7-21.2,59.3-21.2
	c1.8,0,3.7,0.1,5.5,0.2c15.3-21.8,40-35.1,66.4-35.1c26.4,0,51.2,13.3,66.5,35.1c2.2-0.2,4.4-0.3,6.6-0.3
	C405.4,428.6,435.1,450.9,447.1,482.4z"/>
<path class="st33" d="M-15.9,244.5c-2.7-3.4-10.5-5-17.3-3.7c-6.8,1.4-10.1,5.2-7.4,8.6l70.8,87.9c2.1,2.6,7.1,4.2,12.4,4.2
	c1.6,0,3.3-0.2,4.9-0.5c6.8-1.4,10.1-5.2,7.4-8.6L-15.9,244.5z"/>
<path class="st33" d="M62.1,175.1c-6.8,0.1-12,2.9-11.8,6.2L60.8,327c0.2,3.2,5.7,5.8,12.2,5.8c0.1,0,0.3,0,0.4,0
	c6.8-0.1,12-2.9,11.8-6.2L74.7,180.9C74.5,177.6,68.8,175,62.1,175.1z"/>
<path class="st34" d="M463,482.4c0,7-4.8,12.7-10.7,12.7h-89.1L320,577.7c-2,3.8-5.5,6.1-9.4,6.1H110.8c-3.8,0-7.4-2.3-9.4-6.1
	l-43.2-82.6h-89.1c-5.9,0-10.7-5.7-10.7-12.7c0-7,4.8-12.7,10.7-12.7h483.3C458.2,469.7,463,475.4,463,482.4z"/>
<path class="st35" d="M37.4,495.1h340.7l-48.3,82.6c-2.2,3.8-6.2,6.1-10.5,6.1H96.2c-4.3,0-8.3-2.3-10.5-6.1L37.4,495.1z"/>
<path class="st36" d="M167.6,411c0,58.4-46,105.9-102.4,105.9C8.7,516.9-37.3,469.4-37.3,411S8.7,305,65.2,305
	C121.7,305,167.6,352.6,167.6,411z"/>
<path class="st37" d="M40.5,396.3c-2.3,4.1-6.4,6.3-10.6,6.3c-2.1,0-4.2-0.5-6.1-1.7l-10-5.9C8,391.4,6,383.7,9.3,377.6
	c3.4-6.1,10.9-8.1,16.7-4.6l10,5.9C41.9,382.4,43.9,390.2,40.5,396.3z M23.8,421.1l-10,5.9C8,430.5,6,438.3,9.3,444.3
	c2.3,4.1,6.4,6.3,10.6,6.3c2.1,0,4.2-0.5,6.1-1.7l10-5.9c5.9-3.5,7.9-11.2,4.5-17.3C37.1,419.6,29.6,417.6,23.8,421.1z M65.2,344.3
	c-6.8,0-12.3,5.7-12.3,12.7v11.9c0,7,5.5,12.7,12.3,12.7s12.3-5.7,12.3-12.7V357C77.4,350,71.9,344.3,65.2,344.3z M65.2,440.4
	c-6.8,0-12.3,5.7-12.3,12.7V465c0,7,5.5,12.7,12.3,12.7S77.4,472,77.4,465v-11.9C77.4,446.1,71.9,440.4,65.2,440.4z M179.9,411
	c0,65.4-51.4,118.6-114.7,118.6C1.9,529.6-49.5,476.4-49.5,411S1.9,292.4,65.2,292.4C128.4,292.4,179.9,345.6,179.9,411z M155.4,411
	c0-51.4-40.5-93.3-90.2-93.3C15.5,317.7-25,359.6-25,411s40.5,93.3,90.2,93.3C114.9,504.2,155.4,462.4,155.4,411z M116.5,427
	l-10-5.9c-5.9-3.5-13.4-1.4-16.7,4.6c-3.4,6.1-1.4,13.8,4.5,17.3l10,5.9c1.9,1.2,4,1.7,6.1,1.7c4.2,0,8.4-2.3,10.6-6.3
	C124.4,438.2,122.4,430.5,116.5,427z M104.3,373l-10,5.9c-5.9,3.5-7.9,11.2-4.5,17.3c2.3,4.1,6.4,6.3,10.6,6.3
	c2.1,0,4.2-0.5,6.1-1.7l10-5.9c5.9-3.5,7.9-11.2,4.5-17.3C117.6,371.6,110.1,369.5,104.3,373z"/>
</svg>
